<?xml version="1.0" encoding="utf-8"?>
<!-- Generator: Adobe Illustrator 26.1.0, SVG Export Plug-In . SVG Version: 6.00 Build 0)  -->
<svg version="1.1" xmlns="http://www.w3.org/2000/svg" xmlns:xlink="http://www.w3.org/1999/xlink" x="0px" y="0px"
	 viewBox="0 0 872 372" style="enable-background:new 0 0 872 372;" xml:space="preserve">
<style type="text/css">
	.st0{fill:#A6DDFF;}
	.st1{fill:#78C5FF;}
	.st2{fill:#7A3821;}
	.st3{fill:#5E5E5E;}
	.st4{fill:#848484;}
	.st5{fill:#B7410D;}
	.st6{fill:#DB6A2A;}
</style>
<g id="Layer_1">
	<path class="st0" d="M176.4,330.2c-73,0-132.4-63.6-132.4-141.7c0-78.1,59.4-141.7,132.4-141.7c34.1,0,56.2,13.1,67.7,40.1
		c10.8,25.4,11.7,61.9,11.7,97.1c0,36.2-0.9,73.8-11.7,101.4C232.5,315.6,210.3,330.2,176.4,330.2z M176.4,52.5
		c-70,0-127,61-127,136s57,136,127,136c31.8,0,51.8-13.1,62.7-41.1c10.4-26.7,11.3-63.7,11.3-99.3
		C250.4,107.1,245.1,52.5,176.4,52.5z"/>
	<path class="st0" d="M716.2,329.5c-32.5,0-53.7-14.6-64.9-44.7c-10.3-27.6-11.1-65.2-11.1-101.4c0-35.2,0.9-71.6,11.2-97
		c11-27.1,32.2-40.2,64.9-40.2c69.8,0,126.6,63.6,126.6,141.7C842.8,266,786,329.5,716.2,329.5z M716.2,51.8
		c-65.3,0-70.4,54.5-70.4,131.6c0,35.6,0.8,72.6,10.8,99.4c10.4,28,29.3,41,59.6,41c66.7,0,121-61,121-136S782.9,51.8,716.2,51.8z"
		/>
	<path class="st0" d="M453.9,348.8c-85.5,0-142.7-15.7-174.8-48.1c-30.8-31-34.9-73.9-34.9-111.7c0-37.8,4.1-80.7,34.9-111.7
		c32.1-32.4,89.3-48.1,174.8-48.1c86.5,0,140.7,14.5,170.5,45.8c28.1,29.4,30.5,70.1,30.5,109.3c0,38.4-2.3,82.1-30.4,114
		C594.5,332.3,538.7,348.8,453.9,348.8z M453.9,34.8c-84,0-139.8,15.2-170.8,46.5c-29.3,29.6-33.3,71-33.3,107.7s4,78.2,33.3,107.7
		c31,31.3,86.9,46.5,170.8,46.5c83.1,0,137.5-15.9,166.3-48.7c26.7-30.4,29-72.8,29-110.2C649.2,99.6,634.8,34.8,453.9,34.8z"/>
	<path class="st0" d="M182.8,58.7c-69.2,0-121.8,58.3-121.8,130.1S115.5,319,182.8,319c67.3,0,72-62.4,72-134.3
		S250.1,58.7,182.8,58.7z M189.2,302.3c-54,0-102.7-51.1-102.7-114.1S135.2,74,189.2,74c54,0,57.8,47.5,57.8,110.5
		S243.2,302.3,189.2,302.3z"/>
	<path class="st1" d="M252.5,184.5c-0.2,35.3,3.8,90.3-26.9,114.9c-13.1,10.3-30.2,12.7-46.2,11.5c-44.4-3.6-81.4-37.4-96.1-77.6
		c-15.1-40.2-8.7-87.6,17.3-122.1c17.1-23.1,43-40.6,72.1-45c14.9-2.1,30-1.5,44.1,4.6c1.5,0.6,3.8,1.9,5.3,2.7
		c0.9,0.6,2.9,1.9,3.7,2.4c1.2,0.9,2.4,1.9,3.5,2.8C256,102,252.6,152.1,252.5,184.5L252.5,184.5z M241.5,184.5
		c-1.1-27.3,0.2-79.4-25.2-95.5c-6.9-4.2-14.5-5.8-22.8-6.1c-43-1.2-79.3,33.8-90.7,72.8c-6.9,22.7-6.3,47.6,1.7,70
		c11.5,33.1,40.7,62.1,76.7,66.9c26.7,3.5,43.2-6.1,51.7-32.3C240.5,236,241,209.8,241.5,184.5L241.5,184.5z"/>
	<path class="st0" d="M709.8,58c-65.2,0-69.8,54.1-69.8,126s4.6,134.3,69.8,134.3s118-58.3,118-130.1S774.9,58,709.8,58z M706,301.6
		c-54,0-57.8-54.7-57.8-117.7S652,73.4,706,73.4c54,0,97.7,51.1,97.7,114.1S759.9,301.6,706,301.6z"/>
	<path class="st1" d="M654.6,183.8c0,1-1.8,1.7-2.3,2.4c-0.4,0.4-0.3,0.8-0.3,1.2l0,1.2l0.1,4.9c1.2,28.4,1.6,77.7,27.7,94.3
		c9.6,6.1,21.7,6.8,32.9,5.4c42.3-5.2,72-45,78-85.3c9-51.1-18.5-113-72.9-123.5c-15.6-2.7-34.4-2.1-45.4,10.7
		C655.2,115.3,655.7,157.8,654.6,183.8L654.6,183.8z M641.8,183.8c-0.2-37.2-4.8-95.8,35.5-114.4c27.4-11.8,59.9-5.5,84.1,10.6
		c42.2,28.2,60.3,83,51.4,131.7c-8.2,48.9-46.9,94.6-98.6,97.4c-18.1,1.3-38-3.4-50.2-17.9c-21.5-25.2-19.6-71.1-19.6-102.6
		c0,0,0-1.2,0-1.2C644.8,185.8,641.9,185.3,641.8,183.8L641.8,183.8z"/>
	<path class="st0" d="M447.8,41.7c-179,0-206.6,74.5-206.6,148.9s32.6,146.8,206.6,146.8c179.6,0,207.2-69.1,207.2-151
		C655,105.4,623.5,41.7,447.8,41.7z M452.4,316.7c-179.3,0-203.8-56.8-203.8-126.8S273.1,63,452.4,63s192,52.7,192,122.8
		S631.7,316.7,452.4,316.7z"/>
	<path class="st1" d="M652.5,186.4c0.4,24.9-0.4,50.3-12.2,72.8c-24,44.6-78,56.1-121.6,62.6c-25.1,3.2-50.2,5.2-75.3,4.9
		c-30.8-1.2-61.6-4-91.8-10.9c-45.2-10.3-94.5-32.2-105.8-86.1c-2.8-12.1-3.7-24.6-3.8-36.9c-0.4-24.7,2.6-51.4,15.7-72.6
		c44.6-72.3,184.1-70.3,256.5-63.7c42.9,5.3,99,14.7,125,56.9C652.2,134.9,653.2,162,652.5,186.4L652.5,186.4z M641.6,186.4
		c-0.7-22.1-2.5-45.9-14.9-63.7c-19.1-26.4-53.1-32.7-82.4-37.2c-32-4.2-64.3-4.7-96.7-4.6c-32.4,0.4-64.5,1.3-96.4,6.6
		c-29.8,5.3-62.5,14.3-81.3,41.5c-12.4,18.2-14.9,41.1-14.7,63.4c0,21.9,3.8,45.3,16.8,62.5c35.8,47.2,127.1,44.8,179.9,45
		c51.7,0.8,145.4,2.9,176.2-48.7C639.2,232.6,641.3,208.5,641.6,186.4L641.6,186.4z"/>
	<path class="st0" d="M252.6,184.5c-0.6,35.3,1.1,93.5-31.8,114.2c-23.3,13.7-54.7,6.6-76.5-6.9c-45.2-27.7-66-88.7-50-140.2
		c11.3-38.6,42.2-71.8,81-79.8c18-3.5,38.8-2.6,53.4,10.4C253.6,104.3,252.1,153.2,252.6,184.5L252.6,184.5z M241.5,184.5
		c-0.6-29,2.4-79.6-22.1-98c-12.2-8.9-28.5-9.7-43-7.6c-50.4,7.9-86.7,60.4-84.7,112.2c0.5,51.7,39.3,102.7,90.2,107.1
		c18,1.7,36.3-2.8,46.1-19.7C242.7,252.8,241,214,241.5,184.5L241.5,184.5z"/>
	<path class="st0" d="M652.7,183.8c0.5,30.5-2.1,86.2,23.9,106.1c0,0,1.8,1.3,1.8,1.3c0.6,0.4,2.3,1.4,2.8,1.7
		c0.7,0.4,2.3,1.1,3,1.5c2,0.9,4.2,1.6,6.3,2.2c6.6,1.8,13.5,2,20.5,1.6c38.5-2.6,69.1-34.7,80.2-70.3
		c11.7-36.2,7.3-77.9-13.9-109.8c-13.8-20.8-35.6-37.2-60.5-40.8c-11.9-1.7-25-1.1-35.8,4.1c-16.9,8.3-22.8,27.8-25.4,45.3
		C652.8,145.6,652.7,164.7,652.7,183.8L652.7,183.8z M643.6,183.8c0.4-26-0.2-52.8,8.2-77.8c7.2-21.5,23-34.5,45.9-35.7
		c33.7-2.6,65.4,17.8,82.6,45.8c27.8,44.1,26.7,105-3.5,147.7c-15.1,21.5-38.7,37.8-65.4,40.4c-8.3,0.8-17,0.6-25.1-1.7
		c-2.8-0.8-5.8-2-8.5-3.3c-0.7-0.4-2.7-1.5-3.4-1.9c0,0-2.2-1.5-2.2-1.5C642.4,274,644.3,217.5,643.6,183.8L643.6,183.8z"/>
	<path class="st0" d="M651.8,186.4c0,0.7-0.5,1.4-0.6,2.1c0,1.4-0.1,5-0.1,6.4c-0.3,50.1-15.7,84.7-64.3,104.2
		C530.1,321.3,445,320,384.2,314.5c-56.4-6.1-123.9-23.2-136.8-87.2c-4.6-22.9-4.6-46-1-69c6.1-37.9,31-63,66.1-76.3
		c42.9-16.3,89.5-18.7,134.8-19.5c45.3,0.1,91.7,1.2,135.4,15C638.5,95.9,652.7,130.8,651.8,186.4L651.8,186.4z M642.3,186.4
		c-0.1-21.6-0.9-44.4-11.8-63.2c-21.9-37.4-76.4-44.7-116-48.8c-63.8-4.5-174.8-7-227,31.8c-17.6,12.8-28.4,32.3-31.9,53.7
		c-3.4,21.3-3.4,44.3,0.8,65.4c11.6,59.5,76.8,74.5,128.7,80.4c59.2,5.6,143.2,7,198.5-14.5c41.3-16.4,57.1-44.6,58.7-88.1
		c0.3-4,0.2-8.5,0.3-12.5c0,0,0-2.1,0-2.1C642.8,187.8,642.2,187.1,642.3,186.4L642.3,186.4z"/>
</g>
<g id="Layer_4">
	<path class="st2" d="M234,246.5c-3.3,0-6-2.7-6-6c0-7.2,8.3-9.9,17.9-13.1c3.6-1.2,9.5-3.1,11.5-4.5c0.7-2.6,3-4.4,5.8-4.4
		c3.3,0,6,2.7,6,6c0,8-9.5,11.1-19.6,14.4c-3.1,1-8.1,2.6-10,3.8C238.8,244.9,236.6,246.5,234,246.5z"/>
	<path class="st2" d="M234,216.5c-3.3,0-6-2.7-6-6c0-7.2,8.3-9.9,17.9-13.1c3.6-1.2,9.5-3.1,11.5-4.5c0.7-2.6,3-4.4,5.8-4.4
		c3.3,0,6,2.7,6,6c0,8-9.5,11.1-19.6,14.4c-3.1,1-8.1,2.6-10,3.8C238.8,214.9,236.6,216.5,234,216.5z"/>
	<path class="st2" d="M234,185.5c-3.3,0-6-2.7-6-6c0-5.6,5.3-9.9,18.8-15.3c7.7-3.1,15.2-5.3,15.5-5.4c3.2-0.9,6.5,0.8,7.5,4
		c1,3.2-0.8,6.5-4,7.5c-11.5,3.5-23.2,8.4-25.9,10.9C239.1,183.6,236.8,185.5,234,185.5z M240,179.5C240,179.5,240,179.5,240,179.5
		C240,179.5,240,179.5,240,179.5z"/>
	<path class="st2" d="M661,246.5c-2.6,0-4.8-1.6-5.6-3.9c-1.9-1.1-6.9-2.8-10-3.8c-10.1-3.3-19.6-6.4-19.6-14.4c0-3.3,2.7-6,6-6
		c2.8,0,5.1,1.9,5.8,4.4c2,1.4,7.9,3.3,11.5,4.5c9.6,3.1,17.9,5.8,17.9,13.1C667,243.8,664.3,246.5,661,246.5z"/>
	<path class="st2" d="M661,216.5c-2.6,0-4.8-1.6-5.6-3.9c-1.9-1.1-6.9-2.8-10-3.8c-10.1-3.3-19.6-6.4-19.6-14.4c0-3.3,2.7-6,6-6
		c2.8,0,5.1,1.9,5.8,4.4c2,1.4,7.9,3.3,11.5,4.5c9.6,3.1,17.9,5.8,17.9,13.1C667,213.8,664.3,216.5,661,216.5z"/>
	<path class="st2" d="M661,185.5c-2.8,0-5.1-1.9-5.8-4.4c-2.7-2.5-14.4-7.4-25.9-10.9c-3.2-1-5-4.3-4-7.5c1-3.2,4.3-5,7.5-4
		c0.3,0.1,7.8,2.4,15.5,5.4c13.5,5.4,18.8,9.7,18.8,15.3C667,182.8,664.3,185.5,661,185.5z M655.6,181.5L655.6,181.5L655.6,181.5z
		 M655,179.5C655,179.5,655,179.5,655,179.5C655,179.5,655,179.5,655,179.5z"/>
</g>
<g id="Layer_2">
	<path d="M140.4,259.2c0,1.4-0.1,2.6-0.2,3.6c-0.2,1-0.4,1.7-0.7,2.2c-0.3,0.5-0.6,0.9-1,1.1s-0.7,0.3-1.1,0.3c-1.2,0-3.2-0.5-6-1.5
		c-2.7-1-5.9-2.5-9.5-4.4c-3.6-1.9-7.4-4.3-11.4-7.1s-8-6-11.8-9.7c-3,1.8-6.8,3.4-11.4,4.8c-4.6,1.4-10,2-16.1,2
		c-9,0-16.7-1.3-23.3-4c-6.6-2.6-12-6.5-16.2-11.6c-4.3-5.1-7.5-11.5-9.6-19.1c-2.1-7.6-3.1-16.3-3.1-26.2c0-9.5,1.1-18,3.4-25.7
		c2.3-7.7,5.7-14.2,10.2-19.6c4.6-5.4,10.2-9.5,17.1-12.5c6.8-2.9,14.8-4.4,23.9-4.4c8.6,0,16.1,1.3,22.6,4
		c6.5,2.6,11.9,6.5,16.3,11.6c4.4,5.1,7.7,11.3,9.9,18.8s3.3,16,3.3,25.7c0,5-0.3,9.8-0.9,14.3c-0.6,4.6-1.5,8.9-2.8,12.9
		c-1.3,4.1-2.8,7.8-4.8,11.3c-1.9,3.4-4.2,6.6-6.7,9.3c4.5,3.7,8.4,6.6,11.8,8.6c3.4,2.1,6.2,3.6,8.4,4.7c2.2,1,3.9,1.8,5.2,2.3
		c1.2,0.5,2.2,1,2.8,1.6c0.6,0.6,1,1.4,1.3,2.5C140.2,256,140.4,257.4,140.4,259.2z M109,188.6c0-6.8-0.6-13-1.8-18.8
		c-1.2-5.8-3.2-10.8-6-15.1c-2.8-4.3-6.5-7.6-11.2-10c-4.7-2.4-10.5-3.6-17.3-3.6c-6.9,0-12.7,1.3-17.3,3.8
		c-4.7,2.6-8.5,6-11.4,10.3c-2.9,4.3-5,9.4-6.3,15.1c-1.3,5.7-1.9,11.8-1.9,18.2c0,7,0.6,13.5,1.8,19.3c1.2,5.9,3.1,11,5.9,15.3
		s6.5,7.6,11.1,10c4.6,2.4,10.5,3.6,17.5,3.6c7,0,12.8-1.3,17.5-3.9c4.7-2.6,8.6-6.1,11.4-10.5c2.9-4.4,5-9.5,6.2-15.3
		C108.4,201.2,109,195.1,109,188.6z"/>
	<path d="M218.6,246.4c0,0.5-0.1,0.9-0.3,1.2c-0.2,0.3-0.6,0.6-1.2,0.9s-1.3,0.4-2.2,0.6c-0.9,0.1-2,0.2-3.3,0.2
		c-1.4,0-2.6-0.1-3.5-0.2c-0.9-0.1-1.6-0.3-2.1-0.6c-0.5-0.2-0.9-0.5-1.1-0.9c-0.2-0.3-0.3-0.8-0.3-1.2v-11c-4.7,5.2-9.4,9-14,11.4
		s-9.3,3.6-14,3.6c-5.5,0-10.2-0.9-14-2.8c-3.8-1.8-6.8-4.4-9.2-7.5c-2.3-3.2-4-6.9-5-11.1c-1-4.2-1.5-9.3-1.5-15.4v-50.4
		c0-0.5,0.1-0.9,0.3-1.2c0.2-0.3,0.6-0.6,1.2-0.9c0.6-0.3,1.4-0.5,2.4-0.6c1-0.1,2.2-0.1,3.7-0.1s2.7,0,3.7,0.1
		c1,0.1,1.8,0.3,2.4,0.6c0.6,0.3,1,0.6,1.2,0.9c0.2,0.3,0.4,0.8,0.4,1.2v48.4c0,4.9,0.4,8.8,1.1,11.7c0.7,2.9,1.8,5.4,3.2,7.5
		c1.4,2.1,3.3,3.7,5.5,4.8c2.2,1.1,4.8,1.7,7.8,1.7c3.8,0,7.6-1.4,11.4-4.1c3.8-2.7,7.8-6.7,12-11.9v-58c0-0.5,0.1-0.9,0.3-1.2
		c0.2-0.3,0.6-0.6,1.2-0.9c0.6-0.3,1.4-0.5,2.4-0.6c1-0.1,2.2-0.1,3.7-0.1c1.5,0,2.7,0,3.7,0.1c1,0.1,1.8,0.3,2.3,0.6
		c0.6,0.3,1,0.6,1.2,0.9c0.3,0.3,0.4,0.8,0.4,1.2V246.4z"/>
	<path class="st3" d="M260.2,135.3c0,3.6-0.7,6-2,7.3c-1.4,1.3-3.8,1.9-7.5,1.9c-3.6,0-6-0.6-7.3-1.9c-1.3-1.3-2-3.6-2-7.2
		c0-3.6,0.7-6,2-7.3c1.4-1.3,3.8-1.9,7.5-1.9c3.6,0,6,0.6,7.3,1.9C259.5,129.4,260.2,131.8,260.2,135.3z M258.4,246.4
		c0,0.5-0.1,0.9-0.4,1.2c-0.2,0.3-0.6,0.6-1.2,0.9s-1.3,0.4-2.3,0.6c-1,0.1-2.2,0.2-3.8,0.2c-1.5,0-2.7-0.1-3.7-0.2
		c-1-0.1-1.8-0.3-2.4-0.6c-0.6-0.2-1-0.5-1.2-0.9c-0.2-0.3-0.3-0.8-0.3-1.2v-83.1c0-0.4,0.1-0.8,0.3-1.2c0.2-0.4,0.6-0.7,1.2-0.9
		c0.6-0.2,1.4-0.4,2.4-0.6c1-0.1,2.2-0.2,3.7-0.2c1.5,0,2.8,0.1,3.8,0.2c1,0.1,1.8,0.3,2.3,0.6c0.6,0.2,1,0.6,1.2,0.9
		c0.2,0.4,0.4,0.8,0.4,1.2V246.4z"/>
	<path d="M342.7,233.7c0,1,0,2-0.1,2.7c-0.1,0.8-0.2,1.4-0.3,1.9c-0.2,0.5-0.3,1-0.6,1.4c-0.2,0.4-0.7,1-1.5,1.8
		c-0.8,0.8-2.1,1.7-3.9,2.9c-1.8,1.1-3.9,2.2-6.2,3c-2.3,0.9-4.8,1.6-7.5,2.2c-2.7,0.6-5.5,0.8-8.4,0.8c-6,0-11.3-1-15.9-3
		c-4.6-2-8.5-4.8-11.6-8.6c-3.1-3.8-5.5-8.4-7.1-13.9c-1.6-5.5-2.4-11.9-2.4-19.1c0-8.2,1-15.2,3-21.1c2-5.9,4.7-10.7,8.2-14.4
		c3.5-3.8,7.6-6.5,12.3-8.4c4.7-1.8,9.8-2.7,15.3-2.7c2.6,0,5.2,0.2,7.7,0.7c2.5,0.5,4.8,1.1,6.9,1.9c2.1,0.8,4,1.7,5.6,2.8
		c1.6,1,2.8,1.9,3.6,2.7s1.2,1.3,1.5,1.8c0.3,0.4,0.5,0.9,0.7,1.5c0.2,0.6,0.3,1.2,0.4,2c0.1,0.7,0.1,1.7,0.1,2.8
		c0,2.4-0.3,4.1-0.8,5c-0.6,1-1.2,1.4-2,1.4c-0.9,0-2-0.5-3.2-1.5c-1.2-1-2.7-2.1-4.6-3.4s-4.1-2.4-6.7-3.4c-2.6-1-5.7-1.5-9.3-1.5
		c-7.3,0-12.9,2.8-16.8,8.4c-3.9,5.6-5.9,13.8-5.9,24.5c0,5.4,0.5,10,1.5,14.1c1,4,2.5,7.4,4.5,10.1c2,2.7,4.4,4.7,7.2,6
		c2.9,1.3,6.1,2,9.8,2c3.5,0,6.6-0.6,9.2-1.7c2.6-1.1,4.9-2.3,6.9-3.6c1.9-1.3,3.6-2.5,4.9-3.6c1.3-1.1,2.4-1.6,3.1-1.6
		c0.4,0,0.8,0.1,1.1,0.4c0.3,0.2,0.6,0.7,0.8,1.2c0.2,0.6,0.4,1.3,0.5,2.2C342.6,231.4,342.7,232.5,342.7,233.7z"/>
	<path d="M427.5,246.3c0,0.5-0.1,0.9-0.4,1.3c-0.2,0.4-0.7,0.7-1.2,0.9c-0.6,0.2-1.4,0.4-2.4,0.6c-1,0.1-2.4,0.2-4,0.2
		c-1.7,0-3,0-4.1-0.1c-1.1-0.1-2-0.2-2.7-0.5s-1.3-0.5-1.8-0.9c-0.5-0.4-0.9-0.9-1.2-1.4l-35.1-46v46.1c0,0.5-0.1,0.9-0.4,1.2
		c-0.2,0.3-0.6,0.6-1.2,0.9c-0.6,0.2-1.3,0.4-2.3,0.6c-1,0.1-2.2,0.2-3.8,0.2c-1.5,0-2.7-0.1-3.7-0.2c-1-0.1-1.8-0.3-2.4-0.6
		c-0.6-0.2-1-0.5-1.2-0.9c-0.2-0.3-0.3-0.8-0.3-1.2V123.1c0-0.5,0.1-0.9,0.3-1.3c0.2-0.4,0.6-0.7,1.2-0.9c0.6-0.2,1.4-0.4,2.4-0.6
		c1-0.1,2.2-0.2,3.7-0.2c1.5,0,2.8,0.1,3.8,0.2c1,0.1,1.8,0.3,2.3,0.6c0.6,0.2,1,0.6,1.2,0.9c0.2,0.4,0.4,0.8,0.4,1.3v75.1
		l31.4-34.5c0.5-0.6,1-1.1,1.6-1.5c0.6-0.4,1.2-0.7,2-1c0.8-0.3,1.7-0.5,2.7-0.6c1-0.1,2.3-0.1,3.8-0.1c1.5,0,2.8,0,3.9,0.1
		c1,0.1,1.9,0.2,2.5,0.5c0.6,0.2,1.1,0.5,1.4,0.8c0.3,0.3,0.4,0.8,0.4,1.3c0,0.7-0.2,1.5-0.6,2.2c-0.4,0.7-1.1,1.6-2,2.6l-30.1,30.1
		l33.8,43.8c0.8,1,1.4,1.9,1.7,2.5C427.3,245.1,427.5,245.7,427.5,246.3z"/>
	<path d="M507.5,215.2c0,5.6-1,10.6-3.1,15c-2.1,4.4-4.9,8.1-8.6,11.1c-3.7,3-8,5.3-12.9,6.9c-5,1.5-10.3,2.3-16,2.3
		c-4,0-7.7-0.3-11.1-1c-3.4-0.7-6.5-1.5-9.1-2.5c-2.7-1-4.9-2-6.7-3c-1.8-1-3.1-1.9-3.8-2.7c-0.7-0.7-1.2-1.7-1.6-2.8
		c-0.3-1.1-0.5-2.7-0.5-4.6c0-1.4,0.1-2.5,0.2-3.4c0.1-0.9,0.3-1.6,0.6-2.2c0.2-0.6,0.6-0.9,0.9-1.2c0.4-0.2,0.8-0.3,1.3-0.3
		c0.9,0,2.1,0.5,3.6,1.6c1.6,1,3.6,2.2,6,3.4c2.5,1.2,5.4,2.4,8.9,3.5c3.5,1.1,7.5,1.6,12,1.6c3.4,0,6.6-0.5,9.5-1.4
		c2.9-0.9,5.3-2.2,7.4-3.9c2.1-1.7,3.6-3.8,4.8-6.2s1.7-5.3,1.7-8.4c0-3.4-0.8-6.3-2.3-8.7c-1.5-2.4-3.6-4.5-6.1-6.3
		c-2.5-1.8-5.4-3.5-8.6-5c-3.2-1.5-6.5-3-9.9-4.6c-3.4-1.6-6.7-3.3-9.9-5.2c-3.2-1.9-6.1-4.2-8.6-6.7c-2.5-2.6-4.6-5.6-6.1-9.1
		c-1.6-3.5-2.4-7.6-2.4-12.5c0-5,0.9-9.4,2.7-13.3c1.8-3.9,4.3-7.2,7.6-9.8c3.2-2.6,7.1-4.7,11.5-6c4.5-1.4,9.3-2.1,14.4-2.1
		c2.6,0,5.3,0.2,8,0.7c2.7,0.5,5.2,1.1,7.6,1.8c2.4,0.8,4.5,1.6,6.3,2.6c1.8,1,3.1,1.7,3.6,2.3c0.6,0.6,1,1,1.2,1.4
		c0.2,0.3,0.3,0.8,0.5,1.3c0.1,0.5,0.2,1.2,0.3,1.9s0.1,1.7,0.1,2.9c0,1.1,0,2.1-0.1,3c-0.1,0.9-0.2,1.6-0.4,2.2
		c-0.2,0.6-0.4,1-0.8,1.3c-0.3,0.3-0.7,0.4-1.2,0.4c-0.7,0-1.7-0.4-3.2-1.3c-1.4-0.9-3.2-1.8-5.3-2.9c-2.1-1.1-4.6-2.1-7.4-3
		c-2.9-0.9-6.1-1.3-9.6-1.3c-3.3,0-6.2,0.4-8.7,1.3c-2.5,0.9-4.5,2.1-6.1,3.6c-1.6,1.5-2.8,3.2-3.6,5.3c-0.8,2-1.2,4.2-1.2,6.5
		c0,3.3,0.8,6.2,2.3,8.6c1.5,2.4,3.6,4.5,6.1,6.4c2.6,1.8,5.5,3.5,8.7,5.1c3.3,1.5,6.6,3.1,10,4.7c3.4,1.6,6.7,3.3,10,5.2
		c3.3,1.9,6.2,4.1,8.7,6.6c2.6,2.6,4.6,5.6,6.2,9C506.7,206.3,507.5,210.4,507.5,215.2z"/>
	<path d="M612.6,246.3c0,0.5-0.1,0.9-0.4,1.3c-0.2,0.4-0.7,0.7-1.3,0.9c-0.6,0.2-1.4,0.4-2.4,0.6c-1,0.2-2.3,0.2-3.7,0.2
		c-1.6,0-2.9-0.1-3.9-0.2c-1-0.2-1.8-0.3-2.4-0.6c-0.6-0.2-1-0.5-1.3-0.9s-0.4-0.8-0.4-1.3v-53h-54.4v53c0,0.5-0.1,0.9-0.4,1.3
		c-0.2,0.4-0.7,0.7-1.3,0.9c-0.6,0.2-1.4,0.4-2.4,0.6c-1,0.2-2.3,0.2-3.8,0.2c-1.5,0-2.7-0.1-3.8-0.2c-1-0.2-1.9-0.3-2.5-0.6
		c-0.6-0.2-1-0.5-1.3-0.9c-0.2-0.4-0.4-0.8-0.4-1.3V131.7c0-0.5,0.1-0.9,0.4-1.3c0.2-0.4,0.7-0.7,1.3-0.9c0.6-0.2,1.4-0.4,2.5-0.6
		c1-0.2,2.3-0.2,3.8-0.2c1.5,0,2.8,0.1,3.8,0.2c1,0.2,1.8,0.3,2.4,0.6c0.6,0.2,1,0.5,1.3,0.9c0.2,0.4,0.4,0.8,0.4,1.3v47.8h54.4
		v-47.8c0-0.5,0.1-0.9,0.4-1.3s0.7-0.7,1.3-0.9c0.6-0.2,1.4-0.4,2.4-0.6c1-0.2,2.3-0.2,3.9-0.2c1.5,0,2.7,0.1,3.7,0.2
		c1,0.2,1.8,0.3,2.4,0.6c0.6,0.2,1,0.5,1.3,0.9c0.2,0.4,0.4,0.8,0.4,1.3V246.3z"/>
	<path class="st3" d="M656,135.3c0,3.6-0.7,6-2,7.3c-1.4,1.3-3.8,1.9-7.5,1.9c-3.6,0-6-0.6-7.3-1.9c-1.3-1.3-2-3.6-2-7.2
		c0-3.6,0.7-6,2-7.3c1.4-1.3,3.8-1.9,7.5-1.9c3.6,0,6,0.6,7.3,1.9C655.4,129.4,656,131.8,656,135.3z M654.3,246.4
		c0,0.5-0.1,0.9-0.4,1.2c-0.2,0.3-0.6,0.6-1.2,0.9c-0.6,0.2-1.3,0.4-2.3,0.6c-1,0.1-2.2,0.2-3.8,0.2c-1.5,0-2.7-0.1-3.7-0.2
		c-1-0.1-1.8-0.3-2.4-0.6c-0.6-0.2-1-0.5-1.2-0.9c-0.2-0.3-0.3-0.8-0.3-1.2v-83.1c0-0.4,0.1-0.8,0.3-1.2c0.2-0.4,0.6-0.7,1.2-0.9
		c0.6-0.2,1.4-0.4,2.4-0.6c1-0.1,2.2-0.2,3.7-0.2c1.5,0,2.8,0.1,3.8,0.2c1,0.1,1.8,0.3,2.3,0.6c0.6,0.2,1,0.6,1.2,0.9
		c0.2,0.4,0.4,0.8,0.4,1.2V246.4z"/>
	<path d="M743.3,136.1c0,1.2-0.1,2.2-0.2,3c-0.1,0.9-0.3,1.6-0.6,2.1c-0.3,0.5-0.7,0.9-1.1,1.2c-0.4,0.2-0.8,0.4-1.2,0.4h-43.7v40.6
		h41.3c0.4,0,0.8,0.1,1.2,0.3c0.4,0.2,0.8,0.6,1.1,1.1s0.5,1.2,0.6,2c0.1,0.8,0.2,1.9,0.2,3.2c0,1.2-0.1,2.2-0.2,3
		c-0.1,0.8-0.3,1.5-0.6,2c-0.3,0.5-0.7,0.9-1.1,1.2c-0.4,0.3-0.8,0.4-1.2,0.4h-41.3v49.7c0,0.4-0.1,0.8-0.4,1.2
		c-0.2,0.4-0.7,0.7-1.3,0.9c-0.6,0.2-1.4,0.4-2.4,0.6c-1,0.2-2.3,0.2-3.9,0.2c-1.5,0-2.7-0.1-3.8-0.2c-1-0.2-1.9-0.3-2.5-0.6
		c-0.6-0.2-1-0.5-1.3-0.9c-0.2-0.4-0.4-0.8-0.4-1.2V135.7c0-2.4,0.6-4.1,1.9-5c1.3-1,2.6-1.4,4-1.4h53.7c0.4,0,0.8,0.1,1.2,0.4
		c0.4,0.2,0.8,0.6,1.1,1.2c0.3,0.6,0.5,1.3,0.6,2.2C743.3,133.9,743.3,134.9,743.3,136.1z"/>
	<path d="M838.7,136.1c0,1.2-0.1,2.2-0.2,3c-0.1,0.9-0.3,1.6-0.6,2.1c-0.3,0.5-0.6,0.9-1,1.2c-0.4,0.2-0.8,0.4-1.3,0.4h-33.6v103.5
		c0,0.5-0.1,0.9-0.4,1.3s-0.7,0.7-1.3,0.9c-0.6,0.2-1.4,0.4-2.4,0.6c-1,0.2-2.3,0.2-3.8,0.2c-1.5,0-2.7-0.1-3.8-0.2
		c-1-0.2-1.9-0.3-2.5-0.6c-0.6-0.2-1-0.5-1.3-0.9s-0.4-0.8-0.4-1.3V142.7h-33.6c-0.5,0-0.9-0.1-1.3-0.4c-0.4-0.2-0.7-0.6-1-1.2
		c-0.2-0.5-0.4-1.2-0.6-2.1c-0.2-0.9-0.2-1.9-0.2-3c0-1.2,0.1-2.2,0.2-3.1c0.2-0.9,0.4-1.6,0.6-2.2c0.2-0.6,0.6-1,1-1.2
		c0.4-0.2,0.8-0.4,1.3-0.4h83.1c0.5,0,0.9,0.1,1.3,0.4c0.4,0.2,0.7,0.6,1,1.2c0.3,0.6,0.5,1.3,0.6,2.2
		C838.6,133.9,838.7,134.9,838.7,136.1z"/>
	<path d="M260.3,135.3c0,3.6-0.7,6-2,7.3c-1.4,1.3-3.8,1.9-7.5,1.9c-3.6,0-6-0.6-7.3-1.9c-1.3-1.3-2-3.6-2-7.2c0-3.6,0.7-6,2-7.3
		c1.4-1.3,3.8-1.9,7.5-1.9c3.6,0,6,0.6,7.3,1.9C259.6,129.4,260.3,131.8,260.3,135.3z"/>
	<path d="M656.2,135.3c0,3.6-0.7,6-2,7.3c-1.4,1.3-3.8,1.9-7.5,1.9c-3.6,0-6-0.6-7.3-1.9c-1.3-1.3-2-3.6-2-7.2c0-3.6,0.7-6,2-7.3
		c1.4-1.3,3.8-1.9,7.5-1.9c3.6,0,6,0.6,7.3,1.9C655.5,129.4,656.2,131.8,656.2,135.3z"/>
</g>
<g id="Layer_3">
	<path class="st4" d="M246.5,238L246.5,238c-1.4,0-2.5-1.1-2.5-2.5v-69c0-1.4,1.1-2.5,2.5-2.5l0,0c1.4,0,2.5,1.1,2.5,2.5v69
		C249,236.9,247.9,238,246.5,238z"/>
	<path class="st4" d="M643.5,238L643.5,238c-1.4,0-2.5-1.1-2.5-2.5v-69c0-1.4,1.1-2.5,2.5-2.5l0,0c1.4,0,2.5,1.1,2.5,2.5v69
		C646,236.9,644.9,238,643.5,238z"/>
	<path class="st2" d="M263.2,201.5c-2.8,0-5.1-1.9-5.8-4.4c-2-1.4-7.9-3.3-11.5-4.5c-9.6-3.1-17.9-5.8-17.9-13.1c0-3.3,2.7-6,6-6
		c2.6,0,4.8,1.6,5.6,3.9c1.9,1.1,6.9,2.8,10,3.8c10.1,3.3,19.6,6.4,19.6,14.4C269.2,198.8,266.5,201.5,263.2,201.5z M240,179.5
		L240,179.5L240,179.5z"/>
	<path class="st2" d="M263.2,231.5c-2.8,0-5.1-1.9-5.8-4.4c-2-1.4-7.9-3.3-11.5-4.5c-9.6-3.1-17.9-5.8-17.9-13.1c0-3.3,2.7-6,6-6
		c2.6,0,4.8,1.6,5.6,3.9c1.9,1.1,6.9,2.8,10,3.8c10.1,3.3,19.6,6.4,19.6,14.4C269.2,228.8,266.5,231.5,263.2,231.5z M240,209.5
		L240,209.5L240,209.5z"/>
	<path class="st2" d="M631.8,201.5c-3.3,0-6-2.7-6-6c0-8,9.5-11.1,19.6-14.4c3.1-1,8.1-2.6,10-3.8c0.9-2.3,3-3.9,5.6-3.9
		c3.3,0,6,2.7,6,6c0,7.2-8.3,9.9-17.9,13.1c-3.6,1.2-9.5,3.1-11.5,4.5C636.9,199.6,634.6,201.5,631.8,201.5z"/>
	<path class="st2" d="M631.8,231.5c-3.3,0-6-2.7-6-6c0-8,9.5-11.1,19.6-14.4c3.1-1,8.1-2.6,10-3.8c0.9-2.3,3-3.9,5.6-3.9
		c3.3,0,6,2.7,6,6c0,7.2-8.3,9.9-17.9,13.1c-3.6,1.2-9.5,3.1-11.5,4.5C636.9,229.6,634.6,231.5,631.8,231.5z"/>
	<path class="st5" d="M263.2,198c-2.2,0-4.1-1.6-4.4-3.8c-1.6-1.6-8.3-3.8-12.4-5.1c-9.4-3.1-16.9-5.5-16.9-11.6
		c0-2.5,2-4.5,4.5-4.5c2.1,0,3.8,1.4,4.4,3.4c1.7,1.3,7.3,3.1,10.8,4.2c10,3.2,18.6,6,18.6,12.9C267.7,196,265.7,198,263.2,198z
		 M258.7,193.5C258.7,193.5,258.7,193.5,258.7,193.5C258.7,193.5,258.7,193.5,258.7,193.5z M238.5,177.5L238.5,177.5L238.5,177.5z"
		/>
	<path class="st5" d="M263.2,228c-2.2,0-4.1-1.6-4.4-3.8c-1.6-1.6-8.3-3.8-12.4-5.1c-9.4-3.1-16.9-5.5-16.9-11.6
		c0-2.5,2-4.5,4.5-4.5c2.1,0,3.8,1.4,4.4,3.4c1.7,1.3,7.3,3.1,10.8,4.2c10,3.2,18.6,6,18.6,12.9C267.7,226,265.7,228,263.2,228z
		 M258.7,223.5C258.7,223.5,258.7,223.5,258.7,223.5C258.7,223.5,258.7,223.5,258.7,223.5z M238.5,207.5L238.5,207.5L238.5,207.5z"
		/>
	<path class="st5" d="M631.8,198c-2.5,0-4.5-2-4.5-4.5c0-6.9,8.6-9.7,18.6-12.9c3.5-1.1,9.1-3,10.8-4.2c0.5-1.9,2.3-3.4,4.4-3.4
		c2.5,0,4.5,2,4.5,4.5c0,6.2-7.4,8.6-16.9,11.6c-4.1,1.3-10.8,3.5-12.4,5.1C635.9,196.4,634,198,631.8,198z M636.3,193.5
		C636.3,193.5,636.3,193.5,636.3,193.5C636.3,193.5,636.3,193.5,636.3,193.5z"/>
	<path class="st5" d="M631.8,228c-2.5,0-4.5-2-4.5-4.5c0-6.9,8.6-9.7,18.6-12.9c3.5-1.1,9.1-3,10.8-4.2c0.5-1.9,2.3-3.4,4.4-3.4
		c2.5,0,4.5,2,4.5,4.5c0,6.2-7.4,8.6-16.9,11.6c-4.1,1.3-10.8,3.5-12.4,5.1C635.9,226.4,634,228,631.8,228z M636.3,223.5
		C636.3,223.5,636.3,223.5,636.3,223.5C636.3,223.5,636.3,223.5,636.3,223.5z"/>
	<path class="st6" d="M263.2,197c-1.8,0-3.4-1.4-3.5-3.2c-1.2-1.7-8.9-4.2-13-5.6c-9-2.9-16.2-5.3-16.2-10.7c0-1.9,1.6-3.5,3.5-3.5
		c1.7,0,3.2,1.3,3.5,2.9c1.4,1.4,7.6,3.4,11.4,4.6c9.6,3.1,17.9,5.8,17.9,12C266.7,195.4,265.1,197,263.2,197z M237.5,177.5
		C237.5,177.5,237.5,177.5,237.5,177.5C237.5,177.5,237.5,177.5,237.5,177.5z"/>
	<path class="st6" d="M263.2,227c-1.8,0-3.4-1.4-3.5-3.2c-1.2-1.7-8.9-4.2-13-5.6c-9-2.9-16.2-5.3-16.2-10.7c0-1.9,1.6-3.5,3.5-3.5
		c1.7,0,3.2,1.3,3.5,2.9c1.4,1.4,7.6,3.4,11.4,4.6c9.6,3.1,17.9,5.8,17.9,12C266.7,225.4,265.1,227,263.2,227z M237.5,207.5
		C237.5,207.5,237.5,207.5,237.5,207.5C237.5,207.5,237.5,207.5,237.5,207.5z"/>
	<path class="st6" d="M631.8,197c-1.9,0-3.5-1.6-3.5-3.5c0-6.2,8.3-8.9,17.9-12c3.8-1.2,10-3.2,11.4-4.6c0.3-1.7,1.7-2.9,3.5-2.9
		c1.9,0,3.5,1.6,3.5,3.5c0,5.4-7.1,7.7-16.2,10.7c-4.2,1.3-11.8,3.8-13,5.6C635.2,195.6,633.7,197,631.8,197z M657.5,177.5
		C657.5,177.5,657.5,177.5,657.5,177.5C657.5,177.5,657.5,177.5,657.5,177.5z"/>
	<path class="st6" d="M631.8,227c-1.9,0-3.5-1.6-3.5-3.5c0-6.2,8.3-8.9,17.9-12c3.8-1.2,10-3.2,11.4-4.6c0.3-1.7,1.7-2.9,3.5-2.9
		c1.9,0,3.5,1.6,3.5,3.5c0,5.4-7.1,7.7-16.2,10.7c-4.2,1.3-11.8,3.8-13,5.6C635.2,225.6,633.7,227,631.8,227z M657.5,207.5
		C657.5,207.5,657.5,207.5,657.5,207.5C657.5,207.5,657.5,207.5,657.5,207.5z"/>
</g>
</svg>
